<svg width="118" height="95" viewBox="0 0 118 95" fill="none" xmlns="http://www.w3.org/2000/svg">
<path d="M79.318 25.8C70.948 25.8 62.458 25.47 54.498 23.25C46.538 21.03 39.558 16.88 33.128 12.02C28.948 8.85002 25.128 6.34002 19.708 6.72002C14.3952 7.00029 9.31411 8.98503 5.21798 12.38C-1.69202 18.38 -0.642025 29.61 2.11797 37.48C6.26797 49.33 18.908 57.56 29.688 62.93C42.098 69.13 55.688 72.73 69.398 74.8C81.398 76.62 96.768 77.94 107.148 70.12C116.688 62.93 119.308 46.52 116.968 35.43C116.376 32.1668 114.617 29.2306 112.018 27.17C105.328 22.28 95.328 25.55 87.808 25.71C85.008 25.72 82.168 25.79 79.318 25.8Z" fill="#CAFED2"/>
<path d="M103.008 70.2101V74.5001" stroke="#7DCC89" stroke-linecap="round" stroke-linejoin="round"/>
<path d="M100.858 72.3501H105.148" stroke="#7DCC89" stroke-linecap="round" stroke-linejoin="round"/>
<path d="M28.158 11.6801V15.9801" stroke="#7DCC89" stroke-linecap="round" stroke-linejoin="round"/>
<path d="M26.0181 13.8301H30.3081" stroke="#7DCC89" stroke-linecap="round" stroke-linejoin="round"/>
<path d="M100.148 12.07C100.689 12.07 101.128 11.6312 101.128 11.09C101.128 10.5487 100.689 10.11 100.148 10.11C99.6067 10.11 99.168 10.5487 99.168 11.09C99.168 11.6312 99.6067 12.07 100.148 12.07Z" fill="#7DCC89"/>
<path d="M31.4981 43.4001C32.0393 43.4001 32.4781 42.9613 32.4781 42.4201C32.4781 41.8788 32.0393 41.4401 31.4981 41.4401C30.9568 41.4401 30.5181 41.8788 30.5181 42.4201C30.5181 42.9613 30.9568 43.4001 31.4981 43.4001Z" fill="#7DCC89"/>
<path d="M63.058 94.21C83.2992 94.21 99.708 93.1892 99.708 91.93C99.708 90.6708 83.2992 89.65 63.058 89.65C42.8167 89.65 26.408 90.6708 26.408 91.93C26.408 93.1892 42.8167 94.21 63.058 94.21Z" fill="#CAFED2"/>
<path d="M79.328 71.01L61.538 60.33C60.9331 59.9699 60.2421 59.7798 59.538 59.7798C58.834 59.7798 58.143 59.9699 57.538 60.33L40.158 70.93C39.5668 71.2904 38.8902 71.487 38.1978 71.4993C37.5054 71.5117 36.8223 71.3395 36.2185 71.0005C35.6147 70.6614 35.112 70.1677 34.7622 69.5701C34.4124 68.9725 34.228 68.2925 34.228 67.6V3.9C34.228 2.86565 34.6389 1.87367 35.3703 1.14228C36.1017 0.410889 37.0937 0 38.128 0H81.378C82.4116 0.00263994 83.402 0.414378 84.1328 1.1452C84.8636 1.87602 85.2754 2.86646 85.278 3.9V67.66C85.2838 68.3572 85.1026 69.0432 84.7532 69.6466C84.4038 70.25 83.8991 70.7486 83.2915 71.0907C82.684 71.4328 81.9958 71.6057 81.2988 71.5915C80.6017 71.5773 79.9211 71.3765 79.328 71.01Z" fill="#7DCC89"/>
<path d="M86.9181 78.79L68.3481 67.64C67.7115 67.2554 66.9819 67.0521 66.2381 67.0521C65.4943 67.0521 64.7647 67.2554 64.1281 67.64L45.9881 78.72C45.3699 79.096 44.6628 79.3008 43.9393 79.3134C43.2159 79.3261 42.5021 79.1461 41.8711 78.7919C41.2401 78.4378 40.7147 77.9222 40.3486 77.298C39.9826 76.6739 39.7891 75.9636 39.7881 75.24V8.73003C39.7907 7.64968 40.2218 6.61448 40.9866 5.8515C41.7515 5.08851 42.7877 4.66003 43.8681 4.66003H89.0181C90.0975 4.66003 91.1327 5.08883 91.896 5.85211C92.6593 6.61538 93.0881 7.6506 93.0881 8.73003V75.3C93.0887 76.0212 92.8978 76.7295 92.5347 77.3526C92.1717 77.9757 91.6496 78.4912 91.0219 78.8462C90.3942 79.2012 89.6835 79.3831 88.9624 79.3733C88.2413 79.3634 87.5358 79.1621 86.9181 78.79Z" fill="white" stroke="#7DCC89" stroke-linecap="round" stroke-linejoin="round"/>
<path d="M66.438 51.19C76.7713 51.19 85.148 42.8133 85.148 32.48C85.148 22.1468 76.7713 13.77 66.438 13.77C56.1048 13.77 47.728 22.1468 47.728 32.48C47.728 42.8133 56.1048 51.19 66.438 51.19Z" fill="#7DCC89"/>
<path d="M67.3979 19.29L70.8379 26.29L78.5179 27.41C78.7142 27.4399 78.8983 27.5238 79.0497 27.6523C79.201 27.7809 79.3136 27.949 79.3748 28.1378C79.436 28.3267 79.4435 28.5289 79.3964 28.7218C79.3492 28.9147 79.2494 29.0906 79.1079 29.23L73.5479 34.65L74.8579 42.3C74.8918 42.4966 74.87 42.6987 74.7951 42.8836C74.7201 43.0685 74.595 43.2288 74.4338 43.3463C74.2726 43.4638 74.0817 43.5339 73.8828 43.5487C73.6839 43.5635 73.4847 43.5224 73.3079 43.43L66.4379 39.77L59.5679 43.39C59.3911 43.4824 59.192 43.5235 58.993 43.5087C58.7941 43.4939 58.6033 43.4238 58.4421 43.3063C58.2808 43.1887 58.1557 43.0285 58.0808 42.8436C58.0058 42.6587 57.9841 42.4566 58.0179 42.26L59.3379 34.61L53.7779 29.17C53.6327 29.0323 53.5294 28.8562 53.48 28.6623C53.4307 28.4683 53.4372 28.2643 53.4989 28.0739C53.5606 27.8835 53.675 27.7145 53.8288 27.5864C53.9826 27.4583 54.1695 27.3763 54.3679 27.35L62.0479 26.23L65.4879 19.23C65.5826 19.056 65.7238 18.9116 65.8956 18.8131C66.0675 18.7146 66.2634 18.6657 66.4614 18.6719C66.6594 18.6781 66.8518 18.7392 67.0172 18.8483C67.1825 18.9575 67.3143 19.1104 67.3979 19.29Z" fill="white" stroke="#CAFED2" stroke-linecap="round" stroke-linejoin="round"/>
</svg>
